# xmcd CD database file
#
# Track frame offsets:
#	150
#	69538
#	135842
#	169109
#
# Disc length: 3069 seconds
#
# Revision: 0
# Processed by: cddbd v1.5.2PL0 Copyright (c) Steve Scherf et al.
# Submitted via: CDex 1.77
#
DISCID=2c0bfb04
DTITLE=Herbie Hancock ft. Jaco Pastorius - Live in Chicago 1977
DYEAR=1977
DGENRE=Jazz
TTITLE0=DJ Intro-Chameleon
TTITLE1=Hang Up Your Hang-Ups
TTITLE2=Maiden Voyage
TTITLE3=It Remains To Be Seen
EXTD=YEAR: 1977
EXTT0=
EXTT1=
EXTT2=
EXTT3=
PLAYORDER=
